name Visual3d_SIMM_input.mot
datacolumns 42
datarows 17
range 1.340000 1.500000
endheader
time	pelvis_tx	pelvis_ty	pelvis_tz	pelvis_tilt	pelvis_list	pelvis_rotation	hip_flexion_r	hip_adduction_r	hip_rotation_r	knee_angle_r	ankle_angle_r	subtalar_angle_r	mtp_angle_r	hip_flexion_l	hip_adduction_l	hip_rotation_l	knee_angle_l	ankle_angle_l	subtalar_angle_l	mtp_angle_l	lumbar_extension	lumbar_bending	lumbar_rotation	ground_force_vx	ground_force_vy	ground_force_vz	ground_force_px	ground_force_py	ground_force_pz	ground_force_vx	ground_force_vy	ground_force_vz	ground_force_px	ground_force_py	ground_force_pz	ground_torque_x	ground_torque_y	ground_torque_z	ground_torque_x	ground_torque_y	ground_torque_z
1.340000	0.436614	0.646020	0.032821	-5.024603	10.190777	-85.482445	34.905699	6.009400	-5.165497	-26.020671	5.797814	-0.000000	0.000000	-5.792083	-4.086193	-8.659355	-27.685347	17.983157	-0.000000	0.000000	26.562449	2.834847	-7.997203	6.858426	171.494614	-30.600428	0.392446	-0.002693	0.102091	-1.583999	75.430649	22.197119	0.452996	0.000000	-0.239886	-0.000391	-0.117706	0.002213	0.004063	-0.440844	-0.009430
1.350000	0.434929	0.646932	0.044973	-5.213809	10.661067	-85.711212	34.206912	6.906483	-3.057723	-26.066852	5.878944	-0.000000	0.000000	-4.224409	-4.485011	-7.919795	-30.527435	13.695615	-0.000000	0.000000	27.436460	2.922544	-7.516739	7.626851	191.785782	-32.783218	0.391133	-0.003062	0.103813	-0.739985	52.847054	16.443888	0.446694	-0.001542	-0.234370	-0.000724	-0.217905	0.004096	0.003606	-0.391232	-0.008369
1.360000	0.433448	0.647875	0.056866	-5.428827	11.126641	-85.818329	33.523170	7.731609	-1.227396	-26.096556	6.074106	-0.000000	0.000000	-2.441524	-4.909014	-7.147102	-33.684154	9.507870	-0.000000	0.000000	28.238206	3.016563	-7.145505	8.148860	209.854889	-33.640450	0.390185	-0.003122	0.105325	-0.253673	34.247211	10.988742	0.436315	-0.002779	-0.226891	-0.001069	-0.321624	0.006046	0.003236	-0.351155	-0.007511
1.370000	0.432314	0.648824	0.068340	-5.664926	11.580161	-85.755768	32.853907	8.418941	0.158755	-26.087342	6.423756	-0.000000	0.000000	-0.368485	-5.340348	-6.353656	-37.164227	5.617146	-0.000000	0.000000	28.922532	3.109341	-6.924909	8.486506	224.243317	-33.258705	0.389599	-0.002955	0.106748	-0.019259	20.206568	6.361902	0.416824	-0.003836	-0.212994	-0.001385	-0.416769	0.007834	0.002846	-0.308863	-0.006607
1.380000	0.431589	0.649776	0.079328	-5.915183	12.012036	-85.517303	32.181249	8.941530	1.052536	-26.008751	6.920684	-0.000000	0.000000	2.001617	-5.746189	-5.539578	-40.900696	2.179430	-0.000000	0.000000	29.470408	3.198951	-6.848658	8.729452	234.107574	-31.844898	0.389303	-0.002645	0.108150	0.000000	0.000000	0.000000	0.000000	0.000000	0.000000	-0.001642	-0.494206	0.009290	0.000000	0.000000	0.000000
1.390000	0.431262	0.650731	0.089835	-6.163335	12.420185	-85.132118	31.489003	9.296968	1.500201	-25.836557	7.528569	-0.000000	0.000000	4.631547	-6.080358	-4.709685	-44.777371	-0.676923	-0.000000	0.000000	29.888378	3.279678	-6.873341	8.979923	239.332092	-29.658812	0.389190	-0.002259	0.109594	0.000000	0.000000	0.000000	0.000000	0.000000	0.000000	-0.001825	-0.549169	0.010323	0.000000	0.000000	0.000000
1.400000	0.431273	0.651689	0.099906	-6.384131	12.813864	-84.647606	30.773602	9.492172	1.596672	-25.559780	8.201477	-0.000000	0.000000	7.466181	-6.292918	-3.879233	-48.661048	-2.846816	-0.000000	0.000000	30.202434	3.337497	-6.941903	9.325439	240.362137	-26.980618	0.389143	-0.001843	0.111172	0.000000	0.000000	0.000000	0.000000	0.000000	0.000000	-0.001931	-0.581198	0.010925	0.000000	0.000000	0.000000
1.410000	0.431542	0.652648	0.109616	-6.550028	13.205587	-84.115387	30.037451	9.537586	1.446041	-25.178533	8.896105	-0.000000	0.000000	10.440830	-6.344129	-3.075034	-52.421480	-4.257202	-0.000000	0.000000	30.444844	3.354565	-6.999629	9.790295	237.927994	-24.089451	0.389082	-0.001426	0.113000	0.000000	0.000000	0.000000	0.000000	0.000000	0.000000	-0.001970	-0.592922	0.011146	0.000000	0.000000	0.000000
1.420000	0.431975	0.653616	0.119054	-6.634260	13.602501	-83.588661	29.278890	9.446345	1.147616	-24.699412	9.577823	-0.000000	0.000000	13.481846	-6.211754	-2.338790	-55.940264	-4.881357	-0.000000	0.000000	30.642107	3.314136	-6.994453	10.317648	232.844788	-21.218529	0.388968	-0.001025	0.115189	0.000000	0.000000	0.000000	0.000000	0.000000	0.000000	-0.001955	-0.588257	0.011058	0.000000	0.000000	0.000000
1.430000	0.432476	0.654605	0.128311	-6.610626	14.006209	-83.121414	28.491437	9.232852	0.796488	-24.132054	10.222251	-0.000000	0.000000	16.514407	-5.889432	-1.723842	-59.116209	-4.749476	-0.000000	0.000000	30.811735	3.201206	-6.877305	10.795903	225.890793	-18.525839	0.388792	-0.000654	0.117823	0.000000	0.000000	0.000000	0.000000	0.000000	0.000000	-0.001895	-0.570182	0.010718	0.000000	0.000000	0.000000
1.440000	0.432965	0.655623	0.137461	-6.456031	14.415931	-82.755638	27.667956	8.906848	0.470557	-23.486710	10.815786	-0.000000	0.000000	19.475004	-5.379106	-1.271943	-61.869964	-3.948975	-0.000000	0.000000	30.964342	3.000971	-6.618133	11.106489	217.763840	-16.098890	0.388580	-0.000324	0.120938	0.000000	0.000000	0.000000	0.000000	0.000000	0.000000	-0.001796	-0.540477	0.010160	0.000000	0.000000	0.000000
1.450000	0.433407	0.656673	0.146559	-6.154876	14.829171	-82.508469	26.803001	8.468897	0.213088	-22.773676	11.356083	-0.000000	0.000000	22.318178	-4.685517	-0.991995	-64.145592	-2.614301	-0.000000	0.000000	31.105371	2.699637	-6.219170	11.174291	209.090790	-13.958896	0.388366	-0.000050	0.124518	0.000000	0.000000	0.000000	0.000000	0.000000	0.000000	-0.001660	-0.499592	0.009391	0.000000	0.000000	0.000000
1.460000	0.433800	0.657748	0.155641	-5.704348	15.240616	-82.378082	25.892610	7.918757	0.034692	-22.003594	11.848862	-0.000000	0.000000	25.015023	-3.824175	-0.870470	-65.910219	-0.909151	-0.000000	0.000000	31.235794	2.291747	-5.705009	10.987451	200.428177	-12.078909	0.388183	0.000163	0.128498	0.000000	0.000000	0.000000	0.000000	0.000000	0.000000	-0.001490	-0.448311	0.008427	0.000000	0.000000	0.000000
1.470000	0.434148	0.658825	0.164734	-5.119555	15.643864	-82.357567	24.935853	7.269670	-0.070995	-21.186069	12.300548	-0.000000	0.000000	27.552175	-2.833760	-0.893009	-67.153901	0.995311	-0.000000	0.000000	31.355203	1.788696	-5.102751	10.585455	192.246735	-10.403674	0.388041	0.000321	0.132777	0.000000	0.000000	0.000000	0.000000	0.000000	0.000000	-0.001289	-0.387889	0.007292	0.000000	0.000000	0.000000
1.480000	0.434444	0.659867	0.173857	-4.432860	16.034098	-82.442024	23.936594	6.553252	-0.112442	-20.328685	12.713449	-0.000000	0.000000	29.930804	-1.776330	-1.051112	-67.887251	2.942652	-0.000000	0.000000	31.464571	1.219592	-4.430012	10.037386	184.908752	-8.876129	0.387943	0.000441	0.137227	0.000000	0.000000	0.000000	0.000000	0.000000	0.000000	-0.001065	-0.320481	0.006024	0.000000	0.000000	0.000000
1.490000	0.434679	0.660829	0.183020	-3.687628	16.404308	-82.625427	22.898177	5.812502	-0.099160	-19.438659	13.088614	-0.000000	0.000000	32.156893	-0.723356	-1.332689	-68.134771	4.809423	-0.000000	0.000000	31.562273	0.625014	-3.698003	9.421935	178.661072	-7.451708	0.387888	0.000549	0.141713	0.000000	0.000000	0.000000	0.000000	0.000000	0.000000	-0.000828	-0.249158	0.004684	0.000000	0.000000	0.000000
1.500000	0.434865	0.661672	0.192229	-2.932716	16.742558	-82.889244	21.818187	5.090801	-0.051768	-18.521972	13.429526	-0.000000	0.000000	34.233926	0.263766	-1.704489	-67.927597	6.512647	-0.000000	0.000000	31.641432	0.048991	-2.926278	8.808924	173.645416	-6.103568	0.387872	0.000670	0.146116	0.000000	0.000000	0.000000	0.000000	0.000000	0.000000	-0.000587	-0.176671	0.003321	0.000000	0.000000	0.000000
